# xmcd
#
# Track frame offsets:
#	150
#	15049
#	35945
#	54394
#	69507
#	89501
#	113370
#	128173
#	147763
#	162779
#	191391
#	225414
#	240089
#	260287
#	287202
#	313333
#
# Disc length: 4382 seconds
#
# Revision: 1
# Processed by: cddbd v1.4PL0 Copyright (c) Steve Scherf et al.
# Submitted via: EasyCDDAExtractor 5.0.6
#
DISCID=ca111c10
DTITLE=Hitomi Yaida - Complete Singles Collection
DYEAR=2001
DGENRE=
TTITLE0=B'coz i love you
TTITLE1=stay
TTITLE2=¤î¤§
TTITLE3=my sweet darlin'
TTITLE4=nothing compares 2 u
TTITLE5=how
TTITLE6=i like
TTITLE7=we'll be...
TTITLE8=i like 2(mondo paradiso radio edit)
TTITLE9=i like 2(us pleasure mix)
TTITLE10=i like 2(uptown connection trippin' mix)
TTITLE11=maybe i like(original mix)
TTITLE12=dar ling darling(mondo paradiso radio edit)
TTITLE13=dar ling darling(fuel mix by 11s)
TTITLE14=dar ling darling(soleil mix by kevin beber)
TTITLE15=my sweet darling(original version)
EXTD=
EXTT0=
EXTT1=
EXTT2=
EXTT3=
EXTT4=
EXTT5=
EXTT6=
EXTT7=
EXTT8=
EXTT9=
EXTT10=
EXTT11=
EXTT12=
EXTT13=
EXTT14=
EXTT15=
PLAYORDER=
